# Blender v2.79 (sub 0) OBJ File: ''
# www.blender.org
mtllib material_cub.mtl
o Cube
v 1.000000 -1.000000 -1.000000
v 1.000000 -1.000000 1.000000
v -1.000000 -1.000000 1.000000
v -1.000000 -1.000000 -1.000000
v 1.000000 1.000000 -0.999999
v 0.999999 1.000000 1.000001
v -1.000000 1.000000 1.000000
v -1.000000 1.000000 -1.000000
v 1.000000 1.000000 -0.999999
v 0.999999 1.000000 1.000001
v -1.000000 1.000000 1.000000
v -1.000000 1.000000 -1.000000
v 0.709472 2.502062 -2.193625
v 0.709470 2.502062 -0.193625
v -1.290529 2.502062 -0.193626
v -1.290529 2.502062 -2.193625
vn 0.0000 -1.0000 0.0000
vn 0.0000 0.0000 1.0000
vn 1.0000 0.0000 0.0000
vn -1.0000 -0.0000 -0.0000
vn 0.0000 0.0000 -1.0000
vn -0.0000 0.6221 0.7829
vn 0.9818 0.1899 0.0000
vn -0.9818 -0.1899 -0.0000
vn 0.0000 -0.6221 -0.7829
vn 0.0000 1.0000 0.0000
usemtl Material
s off
f 1//1 2//1 3//1 4//1
f 7//2 6//2 10//2 11//2
f 1//3 5//3 6//3 2//3
f 2//2 6//2 7//2 3//2
f 3//4 7//4 8//4 4//4
f 5//5 1//5 4//5 8//5
f 11//6 10//6 14//6 15//6
f 6//2 5//2 9//2 10//2
f 8//2 7//2 11//2 12//2
f 5//2 8//2 12//2 9//2
f 10//7 9//7 13//7 14//7
f 12//8 11//8 15//8 16//8
f 9//9 12//9 16//9 13//9
usemtl Material.001
f 13//10 16//10 15//10 14//10
